:FULLY-SPECIFIED
:FORCE-ALL-JOINTS-BE-3DOF
:DEGREES
713
root 5.53939 21.5033 7.37602 -44.6884 -88.7415 60.8466
lfemur -34.9956 -12.498 9.82684
ltibia 72.9483 0 0
lfoot 5.88796 -7.45612 0
ltoes 31.4781 0 0
rfemur -32.4126 -0.866112 -0.557946
rtibia 85.7264 0 0
rfoot 20.2108 -17.8752 0
rtoes 38.6021 0 0
lowerback 6.25975 -0.823868 -1.884
upperback -1.21556 -1.33879 -1.58353
thorax -4.76869 -0.63977 -0.445101
lowerneck -6.74521 -6.14589 -2.26055
upperneck -0.212131 -8.17026 4.91549
head 1.39624 -4.02082 1.64825
lclavicle -1.2921e-14 -4.41302e-14 0
lhumerus 1.71129 -20.9172 15.4022
lradius 45.9936 0 0
lwrist 23.5511 0 0
lhand -21.4933 -3.18174 0
lfingers 7.12502 0 0
lthumb 4.89802 26.7416 0
rclavicle -1.2921e-14 -4.41302e-14 0
rhumerus -12.3454 -3.453 -26.3227
rradius 99.2425 0 0
rwrist -9.46951 0 0
rhand -28.5883 -36.048 0
rfingers 7.12502 0 0
rthumb -1.95411 -786.019 0
714
root 5.51632 21.5248 7.5857 -114.811 -88.5347 131.091
lfemur -34.2732 -13.513 9.15372
ltibia 69.0394 0 0
lfoot 6.68345 -8.29926 0
ltoes 30.7132 0 0
rfemur -33.219 -1.14835 -1.23526
rtibia 91.4966 0 0
rfoot 20.8563 -19.1874 0
rtoes 40.821 0 0
lowerback 6.14711 -0.699867 -1.84115
upperback -1.26194 -1.16723 -1.5753
thorax -4.75466 -0.555866 -0.47938
lowerneck -6.80973 -6.29731 -2.34534
upperneck -0.317173 -8.36323 4.91648
head 1.38488 -4.11871 1.65447
lclavicle 3.77691e-15 -7.95139e-16 0
lhumerus -0.00677256 -20.6113 16.0088
lradius 45.2287 0 0
lwrist 22.9737 0 0
lhand -21.8284 -3.2593 0
lfingers 7.12502 0 0
lthumb 4.57444 26.6713 0
rclavicle 3.77691e-15 -7.95139e-16 0
rhumerus -11.6072 -2.62759 -27.0112
rradius 99.2225 0 0
rwrist -9.63092 0 0
rhand -27.5551 -34.9797 0
rfingers 7.12502 0 0
rthumb -0.956194 -784.957 0
715
root 5.45689 21.4407 7.75594 -19.4075 -87.6958 35.5574
lfemur -34.2408 -12.9601 8.73243
ltibia 68.7822 -0 0
lfoot 6.20609 -7.81734 -0.13061
ltoes 30.5916 -0 0
rfemur -32.8652 -1.49086 -0.804272
rtibia 90.8953 -0 0
rfoot 20.2192 -19.4492 0.0947573
rtoes 39.8187 -0 0
lowerback 6.06602 -0.614267 -1.83198
upperback -1.25796 -1.04943 -1.61506
thorax -4.70141 -0.498426 -0.528749
lowerneck -6.7848 -6.30974 -2.32558
upperneck -0.357922 -8.37817 4.93052
head 1.36801 -4.12575 1.65672
lclavicle 3.60337e-15 -1.11067e-15 -2.96269e-32
lhumerus -0.837679 -21.058 17.2098
lradius 45.6333 -0 0
lwrist 22.7866 0 0
lhand -21.7947 -3.30794 -0.000885999
lfingers 7.12502 -0 0
lthumb 4.60694 26.6218 -0.000870569
rclavicle 3.60337e-15 -1.11067e-15 -2.96269e-32
rhumerus -11.2455 -1.78884 -28.1374
rradius 98.9197 -0 0
rwrist -9.37177 0 0
rhand -27.4736 -34.7362 0.010802
rfingers 7.12502 -0 0
rthumb -0.877513 -64.7129 0.010457
716
root 5.39746 21.3567 7.92618 -2.38971 -85.0331 18.4093
lfemur -34.2127 -12.4069 8.31238
ltibia 68.525 -0 0
lfoot 5.72765 -7.33435 -0.257195
ltoes 30.47 -0 0
rfemur -32.5139 -1.83602 -0.375333
rtibia 90.2941 -0 0
rfoot 19.5816 -19.712 0.186597
rtoes 38.8164 -0 0
lowerback 5.98495 -0.528654 -1.82292
upperback -1.25406 -0.931631 -1.65482
thorax -4.64821 -0.44094 -0.578064
lowerneck -6.75988 -6.32217 -2.30583
upperneck -0.398676 -8.39309 4.94457
head 1.35115 -4.13279 1.65897
lclavicle 3.42983e-15 -1.4262e-15 -5.82981e-32
lhumerus -1.68094 -21.4883 18.4212
lradius 46.0379 -0 0
lwrist 22.5994 0 0
lhand -21.7611 -3.35657 -0.00174343
lfingers 7.12502 -0 0
lthumb 4.63943 26.5723 -0.00171306
rclavicle 3.42983e-15 -1.4262e-15 -5.82981e-32
rhumerus -10.9006 -0.943173 -29.258
rradius 98.6168 -0 0
rwrist -9.11262 0 0
rhand -27.3921 -34.4927 0.0212578
rfingers 7.12502 -0 0
rthumb -0.798788 -64.4689 0.0205787
717
root 5.33803 21.2726 8.09642 2.55204 -82.2393 13.337
lfemur -34.1888 -11.8536 7.89347
ltibia 68.2679 -0 0
lfoot 5.24816 -6.85031 -0.379739
ltoes 30.3484 -0 0
rfemur -32.1651 -2.18378 0.0515716
rtibia 89.6928 -0 0
rfoot 18.9436 -19.9758 0.275505
rtoes 37.8142 -0 0
lowerback 5.9039 -0.443028 -1.81399
upperback -1.25024 -0.813827 -1.69457
thorax -4.59505 -0.383408 -0.627326
lowerneck -6.73496 -6.33462 -2.28608
upperneck -0.439436 -8.40801 4.95863
head 1.33428 -4.13983 1.66122
lclavicle 3.25628e-15 -1.74173e-15 -8.60136e-32
lhumerus -2.5363 -21.9018 19.6429
lradius 46.4424 -0 0
lwrist 22.4123 0 0
lhand -21.7274 -3.40521 -0.00257228
lfingers 7.12502 -0 0
lthumb 4.67193 26.5228 -0.00252749
rclavicle 3.25628e-15 -1.74173e-15 -8.60136e-32
rhumerus -10.5723 -0.0909348 -30.3732
rradius 98.314 -0 0
rwrist -8.85347 0 0
rhand -27.3106 -34.2492 0.031367
rfingers 7.12502 -0 0
rthumb -0.720021 -64.2248 0.030365
718
root 5.2786 21.1886 8.26667 4.83689 -79.4177 10.9212
lfemur -34.169 -11.3001 7.47563
ltibia 68.0107 -0 0
lfoot 4.76764 -6.36525 -0.498223
ltoes 30.2268 -0 0
rfemur -31.8188 -2.53413 0.476456
rtibia 89.0915 -0 0
rfoot 18.3053 -20.2407 0.361469
rtoes 36.8119 -0 0
lowerback 5.82285 -0.35739 -1.80518
upperback -1.2465 -0.696021 -1.7343
thorax -4.54195 -0.32583 -0.676534
lowerneck -6.71005 -6.34707 -2.26633
upperneck -0.480201 -8.42292 4.9727
head 1.31741 -4.14687 1.66347
lclavicle 3.08274e-15 -2.05726e-15 -1.12773e-31
lhumerus -3.40344 -22.2982 20.8746
lradius 46.847 -0 0
lwrist 22.2251 0 0
lhand -21.6938 -3.45385 -0.00337256
lfingers 7.12502 -0 0
lthumb 4.70443 26.4733 -0.00331383
rclavicle 3.08274e-15 -2.05726e-15 -1.12773e-31
rhumerus -10.2606 0.767519 -31.4837
rradius 98.0111 -0 0
rwrist -8.59432 0 0
rhand -27.229 -34.0057 0.0411295
rfingers 7.12502 -0 0
rthumb -0.641213 -63.9807 0.0398157
719
root 5.21917 21.1045 8.43691 6.1327 -76.5858 9.49386
lfemur -34.1534 -10.7465 7.05876
ltibia 67.7535 -0 0
lfoot 4.28612 -5.87921 -0.612631
ltoes 30.1052 -0 0
rfemur -31.475 -2.88703 0.899336
rtibia 88.4902 -0 0
rfoot 17.6665 -20.5064 0.444477
rtoes 35.8096 -0 0
lowerback 5.74182 -0.271739 -1.79649
upperback -1.24285 -0.578212 -1.77403
thorax -4.4889 -0.268207 -0.725688
lowerneck -6.68514 -6.35953 -2.24659
upperneck -0.520972 -8.43782 4.98678
head 1.30054 -4.15391 1.66573
lclavicle 2.9092e-15 -2.37279e-15 -1.38578e-31
lhumerus -4.28206 -22.6772 22.1162
lradius 47.2516 -0 0
lwrist 22.038 0 0
lhand -21.6601 -3.50249 -0.00414427
lfingers 7.12502 -0 0
lthumb 4.73693 26.4238 -0.0040721
rclavicle 2.9092e-15 -2.37279e-15 -1.38578e-31
rhumerus -9.96545 1.63184 -32.5898
rradius 97.7083 -0 0
rwrist -8.33517 0 0
rhand -27.1473 -33.7622 0.0505451
rfingers 7.12502 -0 0
rthumb -0.562366 -63.7366 0.0489305
720
root 5.15974 21.0204 8.60715 6.95485 -73.749 8.53938
lfemur -34.1419 -10.1928 6.6428
ltibia 67.4963 -0 0
lfoot 3.80364 -5.39221 -0.722947
ltoes 29.9836 -0 0
rfemur -31.1338 -3.24245 1.32023
rtibia 87.889 -0 0
rfoot 17.0273 -20.7731 0.524516
rtoes 34.8073 -0 0
lowerback 5.66081 -0.186077 -1.78792
upperback -1.23927 -0.4604 -1.81375
thorax -4.43589 -0.210539 -0.774788
lowerneck -6.66023 -6.372 -2.22686
upperneck -0.561749 -8.4527 5.00087
head 1.28368 -4.16095 1.66799
lclavicle 2.73566e-15 -2.68833e-15 -1.63426e-31
lhumerus -5.17178 -23.0384 23.3673
lradius 47.6562 -0 0
lwrist 21.8508 0 0
lhand -21.6264 -3.55113 -0.0048874
lfingers 7.12502 -0 0
lthumb 4.76943 26.3743 -0.00480229
rclavicle 2.73566e-15 -2.68833e-15 -1.63426e-31
rhumerus -9.68695 2.50169 -33.6921
rradius 97.4054 -0 0
rwrist -8.07602 0 0
rhand -27.0656 -33.5186 0.0596135
rfingers 7.12502 -0 0
rthumb -0.48348 -63.4924 0.0577092
721
root 5.10031 20.9364 8.77739 7.51385 -70.9096 7.84711
lfemur -34.1346 -9.63906 6.22765
ltibia 67.2391 -0 0
lfoot 3.32022 -4.90428 -0.829153
ltoes 29.862 -0 0
rfemur -30.795 -3.60036 1.73915
rtibia 87.2877 -0 0
rfoot 16.3878 -21.0406 0.601574
rtoes 33.805 -0 0
lowerback 5.57981 -0.100402 -1.77947
upperback -1.23578 -0.342586 -1.85346
thorax -4.38294 -0.152825 -0.823836
lowerneck -6.63532 -6.38448 -2.20713
upperneck -0.602531 -8.46758 5.01498
head 1.26681 -4.16799 1.67025
lclavicle 2.56211e-15 -3.00386e-15 -1.87319e-31
lhumerus -6.07223 -23.3816 24.6276
lradius 48.0608 -0 0
lwrist 21.6637 0 0
lhand -21.5928 -3.59977 -0.00560196
lfingers 7.12502 -0 0
lthumb 4.80193 26.3248 -0.00550441
rclavicle 2.56211e-15 -3.00386e-15 -1.87319e-31
rhumerus -9.42504 3.37672 -34.791
rradius 97.1026 -0 0
rwrist -7.81687 0 0
rhand -26.9839 -33.2751 0.0683347
rfingers 7.12502 -0 0
rthumb -0.404557 -63.2483 0.0661518
722
root 5.04088 20.8523 8.94763 7.91153 -68.0685 7.31505
lfemur -34.1312 -9.08525 5.81323
ltibia 66.9819 -0 0
lfoot 2.83591 -4.41547 -0.931236
ltoes 29.7404 -0 0
rfemur -30.4588 -3.96072 2.15611
rtibia 86.6864 -0 0
rfoot 15.7479 -21.309 0.675641
rtoes 32.8028 -0 0
lowerback 5.49882 -0.0147149 -1.77115
upperback -1.23237 -0.22477 -1.89317
thorax -4.33004 -0.0950656 -0.872829
lowerneck -6.61042 -6.39696 -2.18741
upperneck -0.643319 -8.48245 5.02909
head 1.24994 -4.17503 1.67251
lclavicle 2.38857e-15 -3.31939e-15 -2.10256e-31
lhumerus -6.98299 -23.7064 25.8969
lradius 48.4654 -0 0
lwrist 21.4765 0 0
lhand -21.5591 -3.64841 -0.00628794
lfingers 7.12502 -0 0
lthumb 4.83443 26.2753 -0.00617844
rclavicle 2.38857e-15 -3.31939e-15 -2.10256e-31
rhumerus -9.17974 4.2566 -35.8869
rradius 96.7997 -0 0
rwrist -7.55772 0 0
rhand -26.9022 -33.0315 0.0767084
rfingers 7.12502 -0 0
rthumb -0.325599 -63.0042 0.074258
